<mxfile host="Electron" agent="Mozilla/5.0 (Windows NT 10.0; Win64; x64) AppleWebKit/537.36 (KHTML, like Gecko) draw.io/26.0.16 Chrome/132.0.6834.196 Electron/34.2.0 Safari/537.36" version="26.0.16">
  <diagram name="Page-1" id="trQdiBlen_foMQJMFfYV">
    <mxGraphModel dx="1434" dy="844" grid="1" gridSize="10" guides="1" tooltips="1" connect="1" arrows="1" fold="1" page="1" pageScale="1" pageWidth="850" pageHeight="1100" math="0" shadow="0">
      <root>
        <mxCell id="0" />
        <mxCell id="1" parent="0" />
        <mxCell id="NOaE37VPc0i63LTB-BPz-1" value="&lt;b&gt;Raspberry Pi&lt;/b&gt;" style="rounded=0;whiteSpace=wrap;html=1;fontStyle=1" parent="1" vertex="1">
          <mxGeometry x="320" y="240" width="160" height="40" as="geometry" />
        </mxCell>
        <mxCell id="yJ3yhxOb3OaTGg_4wgQc-15" value="&lt;span style=&quot;font-size: 10px;&quot;&gt;2&lt;/span&gt;" style="text;html=1;align=center;verticalAlign=middle;resizable=0;points=[];autosize=1;strokeColor=none;fillColor=none;spacing=-3;" parent="1" vertex="1">
          <mxGeometry x="400" y="290" width="20" height="20" as="geometry" />
        </mxCell>
        <mxCell id="K-YRUdZd7LCB-STNwwLy-19" value="&lt;b&gt;&amp;nbsp; Pathfinding&lt;/b&gt;" style="rounded=0;whiteSpace=wrap;html=1;align=left;verticalAlign=top;" parent="1" vertex="1">
          <mxGeometry x="280" y="320" width="240" height="200" as="geometry" />
        </mxCell>
        <mxCell id="K-YRUdZd7LCB-STNwwLy-20" value="&lt;font style=&quot;font-size: 10px;&quot;&gt;Navigation&lt;/font&gt;" style="rounded=0;whiteSpace=wrap;html=1;" parent="1" vertex="1">
          <mxGeometry x="370" y="340" width="60" height="20" as="geometry" />
        </mxCell>
        <mxCell id="K-YRUdZd7LCB-STNwwLy-21" style="edgeStyle=orthogonalEdgeStyle;rounded=0;orthogonalLoop=1;jettySize=auto;html=1;exitX=0.75;exitY=0;exitDx=0;exitDy=0;entryX=1;entryY=0.5;entryDx=0;entryDy=0;" parent="1" source="K-YRUdZd7LCB-STNwwLy-22" target="K-YRUdZd7LCB-STNwwLy-20" edge="1">
          <mxGeometry relative="1" as="geometry" />
        </mxCell>
        <mxCell id="K-YRUdZd7LCB-STNwwLy-22" value="&lt;font style=&quot;font-size: 10px;&quot;&gt;Obstacle&lt;/font&gt;&lt;div&gt;&lt;font style=&quot;font-size: 10px;&quot;&gt;Detection&lt;/font&gt;&lt;/div&gt;" style="rounded=0;whiteSpace=wrap;html=1;" parent="1" vertex="1">
          <mxGeometry x="410" y="412" width="55" height="30" as="geometry" />
        </mxCell>
        <mxCell id="K-YRUdZd7LCB-STNwwLy-23" style="edgeStyle=orthogonalEdgeStyle;rounded=0;orthogonalLoop=1;jettySize=auto;html=1;exitX=0.25;exitY=0;exitDx=0;exitDy=0;entryX=0;entryY=0.5;entryDx=0;entryDy=0;" parent="1" source="K-YRUdZd7LCB-STNwwLy-24" target="K-YRUdZd7LCB-STNwwLy-22" edge="1">
          <mxGeometry relative="1" as="geometry" />
        </mxCell>
        <mxCell id="K-YRUdZd7LCB-STNwwLy-24" value="&lt;span style=&quot;font-size: 10px;&quot;&gt;Static&lt;/span&gt;&lt;div&gt;&lt;span style=&quot;font-size: 10px;&quot;&gt;Map&lt;/span&gt;&lt;/div&gt;" style="rounded=0;whiteSpace=wrap;html=1;" parent="1" vertex="1">
          <mxGeometry x="375" y="480" width="52" height="30" as="geometry" />
        </mxCell>
        <mxCell id="K-YRUdZd7LCB-STNwwLy-25" style="edgeStyle=orthogonalEdgeStyle;rounded=0;orthogonalLoop=1;jettySize=auto;html=1;exitX=0.75;exitY=0;exitDx=0;exitDy=0;entryX=1;entryY=0.5;entryDx=0;entryDy=0;" parent="1" source="K-YRUdZd7LCB-STNwwLy-26" target="K-YRUdZd7LCB-STNwwLy-22" edge="1">
          <mxGeometry relative="1" as="geometry" />
        </mxCell>
        <mxCell id="K-YRUdZd7LCB-STNwwLy-26" value="&lt;span style=&quot;font-size: 10px;&quot;&gt;Live LiDAR&lt;/span&gt;&lt;div&gt;&lt;span style=&quot;font-size: 10px;&quot;&gt;Data&lt;/span&gt;&lt;/div&gt;" style="rounded=0;whiteSpace=wrap;html=1;" parent="1" vertex="1">
          <mxGeometry x="440" y="470" width="70" height="30" as="geometry" />
        </mxCell>
        <mxCell id="K-YRUdZd7LCB-STNwwLy-27" style="edgeStyle=orthogonalEdgeStyle;rounded=0;orthogonalLoop=1;jettySize=auto;html=1;exitX=0.5;exitY=0;exitDx=0;exitDy=0;entryX=0;entryY=0.5;entryDx=0;entryDy=0;" parent="1" source="K-YRUdZd7LCB-STNwwLy-28" target="K-YRUdZd7LCB-STNwwLy-20" edge="1">
          <mxGeometry relative="1" as="geometry" />
        </mxCell>
        <mxCell id="K-YRUdZd7LCB-STNwwLy-28" value="&lt;span style=&quot;font-size: 10px;&quot;&gt;Robot Position&lt;/span&gt;&lt;div&gt;&lt;span style=&quot;font-size: 10px;&quot;&gt;Estimate&lt;/span&gt;&lt;/div&gt;" style="rounded=0;whiteSpace=wrap;html=1;" parent="1" vertex="1">
          <mxGeometry x="287.5" y="420" width="75" height="39" as="geometry" />
        </mxCell>
        <mxCell id="K-YRUdZd7LCB-STNwwLy-29" style="edgeStyle=orthogonalEdgeStyle;rounded=0;orthogonalLoop=1;jettySize=auto;html=1;exitX=0.5;exitY=0;exitDx=0;exitDy=0;entryX=0.5;entryY=1;entryDx=0;entryDy=0;" parent="1" source="K-YRUdZd7LCB-STNwwLy-30" target="K-YRUdZd7LCB-STNwwLy-28" edge="1">
          <mxGeometry relative="1" as="geometry" />
        </mxCell>
        <mxCell id="K-YRUdZd7LCB-STNwwLy-30" value="&lt;font style=&quot;font-size: 10px;&quot;&gt;Slam&lt;/font&gt;" style="rounded=0;whiteSpace=wrap;html=1;" parent="1" vertex="1">
          <mxGeometry x="307.5" y="485" width="35" height="20" as="geometry" />
        </mxCell>
        <mxCell id="K-YRUdZd7LCB-STNwwLy-31" value="&lt;font style=&quot;font-size: 10px;&quot;&gt;9&lt;/font&gt;" style="text;html=1;align=center;verticalAlign=middle;resizable=0;points=[];autosize=1;strokeColor=none;fillColor=none;spacing=-3;" parent="1" vertex="1">
          <mxGeometry x="430" y="372" width="20" height="20" as="geometry" />
        </mxCell>
        <mxCell id="K-YRUdZd7LCB-STNwwLy-32" value="&lt;font style=&quot;font-size: 10px;&quot;&gt;7&lt;/font&gt;" style="text;html=1;align=center;verticalAlign=middle;resizable=0;points=[];autosize=1;strokeColor=none;fillColor=none;spacing=-3;" parent="1" vertex="1">
          <mxGeometry x="304.5" y="372" width="20" height="20" as="geometry" />
        </mxCell>
        <mxCell id="K-YRUdZd7LCB-STNwwLy-33" value="&lt;font style=&quot;font-size: 10px;&quot;&gt;8&lt;/font&gt;" style="text;html=1;align=center;verticalAlign=middle;resizable=0;points=[];autosize=1;strokeColor=none;fillColor=none;spacing=-3;" parent="1" vertex="1">
          <mxGeometry x="304.5" y="465" width="20" height="20" as="geometry" />
        </mxCell>
        <mxCell id="K-YRUdZd7LCB-STNwwLy-34" value="&lt;font style=&quot;font-size: 10px;&quot;&gt;10&lt;/font&gt;" style="text;html=1;align=center;verticalAlign=middle;resizable=0;points=[];autosize=1;strokeColor=none;fillColor=none;spacing=-3;" parent="1" vertex="1">
          <mxGeometry x="368" y="450" width="20" height="20" as="geometry" />
        </mxCell>
        <mxCell id="K-YRUdZd7LCB-STNwwLy-35" value="&lt;font style=&quot;font-size: 10px;&quot;&gt;11&lt;/font&gt;" style="text;html=1;align=center;verticalAlign=middle;resizable=0;points=[];autosize=1;strokeColor=none;fillColor=none;spacing=-3;" parent="1" vertex="1">
          <mxGeometry x="472" y="442" width="20" height="20" as="geometry" />
        </mxCell>
        <mxCell id="K-YRUdZd7LCB-STNwwLy-36" style="edgeStyle=orthogonalEdgeStyle;rounded=0;orthogonalLoop=1;jettySize=auto;html=1;startArrow=classic;startFill=1;entryX=0.5;entryY=0;entryDx=0;entryDy=0;" parent="1" edge="1" target="K-YRUdZd7LCB-STNwwLy-20">
          <mxGeometry relative="1" as="geometry">
            <mxPoint x="400" y="280" as="sourcePoint" />
            <mxPoint x="400" y="360" as="targetPoint" />
          </mxGeometry>
        </mxCell>
      </root>
    </mxGraphModel>
  </diagram>
</mxfile>
